<svg xmlns="http://www.w3.org/2000/svg" width="161" height="146" fill="none"><path fill="gray" stroke="#fff" stroke-linejoin="round" stroke-width=".9" d="M146.96 123.28q1.12.08 2.29.13c3.04.07 5.5.7 6.06 4.4.29 1.83 1.48 3.5 2.02 5.31.92 3.05-.3 5.31-3.28 6.34a9 9 0 0 1-2.64.5c-17.16.58-34.33 1.1-51.5 1.7-12.56.45-25.12 1.03-37.68 1.52q-10.28.39-20.54.75c-7.74.28-15.48.63-23.23.8q-5.21.18-10.41-.36c-4.56-.51-5.98-2.34-6-6.92l.03-3.03c-.01-3.81 1.1-5.15 5-5.55 2.1-.2 4.24-.03 6.71-.03l1.24-56.63c-1.44 1.02-2.65 1.92-3.9 2.76-4.7 3.14-8.75 1.25-9.24-4.34-.25-2.8-.11-5.64-.54-8.4-.85-5.59 1.7-9.38 5.92-12.55 8.6-6.48 17.06-13.18 25.79-19.5a488 488 0 0 1 43-27.72C78.77.9 80.49.93 83.02 2.4c14.65 8.54 29.18 17.24 43.21 26.8 9.46 6.43 19.28 12.35 29 18.4 2.5 1.54 4.08 3.21 3.86 6.44-.17 2.43.37 4.91.6 7.37.25 2.47.48 4.9-.8 7.23-1.55 2.87-3.56 3.96-6.65 2.92-2.28-.77-4.41-2.01-6.48-2.98zm-8.11.66v-5.64c-.16-17.62-.36-35.25-.45-52.87 0-1.75-.71-2.54-2.06-3.41-10.55-6.82-21.04-13.74-31.56-20.61L80.58 25.6c-2.14 1.59-4.08 3.1-6.09 4.53a21797 21797 0 0 1-50.98 35.8c-2.14 1.48-3.17 3-3.09 5.74.47 16.27.74 32.55 1.1 48.83.05 2.43.2 4.86.33 7.61l6.63-.46c0-2.82-.03-5.17 0-7.51.15-15.15-.54-30.32.99-45.44.37-3.64.7-4.1 4.3-4.86q1.3-.26 2.66-.39c5.02-.54 10.03-1.19 15.06-1.58 11.52-.9 23.05-1.81 34.58-2.43 10.99-.58 22-.73 32.99-1.18 6.3-.25 9.23 2.03 9.67 8.3a724 724 0 0 1 1.44 26.21c.24 7.18.08 14.37.13 21.56 0 1.29.16 2.58.27 4.1zM121.98 71.9c-12.14-1.24-77.39 1.55-87.17 3.77-.06.91-.18 1.9-.17 2.87l.62 46.8q.14 1.08.46 2.1l9.25-.56c0-5.5.07-10.55-.02-15.6-.05-2.54 1.17-4.01 3.44-4.72q1.78-.51 3.61-.74c1.97-.28 3.96-.48 5.99-.72 0-1.04-.02-1.8 0-2.56.16-4.6.2-9.2.55-13.77.2-2.5 1.13-3.45 3.63-3.64q11.07-.82 22.16-1.24c2.58-.1 3.62 1 4.13 3.53.32 1.53.49 3.1.69 4.66q.65 5.1 1.28 10.22.83.09 1.65.07c5.8-.72 7.56 1.34 8.55 6.54 1.02 5.36 1.86 10.75 2.84 16.57l19.36-.74zM80.24 8.03c-1.17.76-2.09 1.4-3.05 1.98C54.94 23.2 34.02 38.3 13.22 53.63c-3.07 2.27-4.24 4.6-3.63 8.15.22 1.3.38 2.64.63 4.4 3.1-2.24 5.9-4.27 8.72-6.28l55-39.45c.83-.58 1.7-1.08 2.58-1.6a4.2 4.2 0 0 1 5.01.28 84 84 0 0 0 5.25 3.65c20.57 12.82 40.56 26.57 61.66 38.53.93.53 1.89 1 3.08 1.63.23-2.26.28-4.07.62-5.82.45-2.3-.4-3.68-2.35-4.95-15.83-10.26-31.53-20.7-47.4-30.9-7.16-4.6-14.62-8.76-22.15-13.24Zm-73 130.94q2.82.4 5.66.48c10.65-.35 21.3-.8 31.94-1.2 8.52-.32 17.05-.57 25.56-.92 8.86-.36 17.7-.91 26.56-1.19 14.69-.46 29.4-.3 44.03-2.04 2.33-.28 4.69-.42 7.02-.7.93-.11 2.24.04 2.2-1.46-.03-1.58-1.27-1.2-2.24-1.18l-.67.06c-7.63.3-15.25.7-22.88.87-18.51.42-37.03.7-55.55 1.1-20.08.45-40.17.97-60.25 1.46-.54.01-1.07.09-1.82.15l.45 4.57Zm60.7-12.65v-16.3c-5.9.32-11.54 0-17.17 1.23l1.77 15.06zm25.74-.88-1.42-15.67H75.62l2.2 16.29zM82.64 89.1c-6.15-.1-12.19-.36-18.56.44l1.75 14.81 16.81-1.7z" paint-order="stroke fill markers"/></svg>